<svg xmlns="http://www.w3.org/2000/svg" xmlns:xlink="http://www.w3.org/1999/xlink" width="500" zoomAndPan="magnify" viewBox="0 0 375 374.999991" height="500" preserveAspectRatio="xMidYMid meet" version="1.0"><defs><g/><clipPath id="c69ed000c1"><path d="M 46.855469 152.09375 L 77.605469 152.09375 L 77.605469 182.84375 L 46.855469 182.84375 Z M 46.855469 152.09375 " clip-rule="nonzero"/></clipPath><clipPath id="9cb18d009a"><path d="M 209.125 196.4375 L 221.636719 196.4375 L 221.636719 208.578125 L 209.125 208.578125 Z M 209.125 196.4375 " clip-rule="nonzero"/></clipPath><clipPath id="8a5fd1a8fc"><path d="M 216.425781 197.109375 L 221.457031 206.59375 C 221.679688 207.011719 221.664062 207.515625 221.421875 207.925781 C 221.175781 208.332031 220.734375 208.578125 220.261719 208.578125 L 210.480469 208.578125 C 210.007812 208.578125 209.566406 208.332031 209.320312 207.925781 C 209.078125 207.515625 209.0625 207.011719 209.285156 206.59375 L 214.316406 197.109375 C 214.523438 196.722656 214.929688 196.476562 215.371094 196.476562 C 215.8125 196.476562 216.21875 196.722656 216.425781 197.109375 Z M 216.425781 197.109375 " clip-rule="nonzero"/></clipPath><clipPath id="a32bab1c2b"><path d="M 207.664062 183.683594 L 223.078125 183.683594 L 223.078125 204.515625 L 207.664062 204.515625 Z M 207.664062 183.683594 " clip-rule="nonzero"/></clipPath><clipPath id="741569b44c"><path d="M 212.164062 183.683594 L 218.578125 183.683594 C 219.773438 183.683594 220.917969 184.15625 221.761719 185 C 222.605469 185.84375 223.078125 186.988281 223.078125 188.183594 L 223.078125 200 C 223.078125 201.191406 222.605469 202.335938 221.761719 203.179688 C 220.917969 204.023438 219.773438 204.5 218.578125 204.5 L 212.164062 204.5 C 210.96875 204.5 209.824219 204.023438 208.980469 203.179688 C 208.136719 202.335938 207.664062 201.191406 207.664062 200 L 207.664062 188.183594 C 207.664062 186.988281 208.136719 185.84375 208.980469 185 C 209.824219 184.15625 210.96875 183.683594 212.164062 183.683594 Z M 212.164062 183.683594 " clip-rule="nonzero"/></clipPath><clipPath id="44a3ed8b76"><path d="M 207.808594 173.003906 L 222.953125 173.003906 L 222.953125 183.683594 L 207.808594 183.683594 Z M 207.808594 173.003906 " clip-rule="nonzero"/></clipPath><clipPath id="5f3957a4c9"><path d="M 216.703125 173.710938 L 222.707031 181.871094 C 222.960938 182.214844 223 182.675781 222.804688 183.058594 C 222.609375 183.441406 222.21875 183.683594 221.789062 183.683594 L 208.953125 183.683594 C 208.523438 183.683594 208.132812 183.441406 207.9375 183.058594 C 207.746094 182.675781 207.78125 182.214844 208.035156 181.871094 L 214.039062 173.710938 C 214.351562 173.289062 214.84375 173.039062 215.371094 173.039062 C 215.898438 173.039062 216.394531 173.289062 216.703125 173.710938 Z M 216.703125 173.710938 " clip-rule="nonzero"/></clipPath><clipPath id="56d52258f7"><path d="M 207.664062 182.78125 L 223.078125 182.78125 L 223.078125 192.183594 L 207.664062 192.183594 Z M 207.664062 182.78125 " clip-rule="nonzero"/></clipPath><clipPath id="7f9da6cdd5"><path d="M 204.824219 192.265625 L 225.902344 192.265625 L 225.902344 204.722656 L 204.824219 204.722656 Z M 204.824219 192.265625 " clip-rule="nonzero"/></clipPath><clipPath id="3425beca95"><path d="M 216.851562 192.960938 L 225.644531 203.03125 C 225.910156 203.332031 225.972656 203.761719 225.808594 204.125 C 225.640625 204.488281 225.277344 204.722656 224.875 204.722656 L 205.867188 204.722656 C 205.464844 204.722656 205.101562 204.488281 204.9375 204.125 C 204.769531 203.761719 204.832031 203.332031 205.097656 203.03125 L 213.890625 192.960938 C 214.265625 192.535156 214.804688 192.289062 215.371094 192.289062 C 215.9375 192.289062 216.476562 192.535156 216.851562 192.960938 Z M 216.851562 192.960938 " clip-rule="nonzero"/></clipPath><clipPath id="10572e03cf"><path d="M 207.664062 190.308594 L 223.078125 190.308594 L 223.078125 194.058594 L 207.664062 194.058594 Z M 207.664062 190.308594 " clip-rule="nonzero"/></clipPath></defs><g fill="#ffffff" fill-opacity="1"><g transform="translate(75.877273, 207.498428)"><g><path d="M 19.875 -34.234375 L 33.703125 0 L 25.3125 0 L 22.78125 -6.84375 L 9.75 -6.84375 L 7.21875 0 L -1.15625 0 L 12.65625 -34.234375 Z M 20.125 -13.6875 L 16.3125 -23.65625 L 16.21875 -23.65625 L 12.40625 -13.6875 Z M 20.125 -13.6875 "/></g></g></g><g fill="#ffffff" fill-opacity="1"><g transform="translate(111.108356, 207.498428)"><g><path d="M 15.109375 -34.859375 C 16.960938 -34.859375 18.773438 -34.585938 20.546875 -34.046875 C 22.316406 -33.503906 23.628906 -32.972656 24.484375 -32.453125 L 25.734375 -31.625 L 22.578125 -25.390625 C 22.328125 -25.554688 21.976562 -25.769531 21.53125 -26.03125 C 21.09375 -26.300781 20.265625 -26.65625 19.046875 -27.09375 C 17.828125 -27.539062 16.691406 -27.765625 15.640625 -27.765625 C 14.335938 -27.765625 13.332031 -27.488281 12.625 -26.9375 C 11.925781 -26.382812 11.578125 -25.632812 11.578125 -24.6875 C 11.578125 -24.21875 11.742188 -23.78125 12.078125 -23.375 C 12.410156 -22.976562 12.976562 -22.550781 13.78125 -22.09375 C 14.582031 -21.632812 15.285156 -21.265625 15.890625 -20.984375 C 16.503906 -20.710938 17.445312 -20.300781 18.71875 -19.75 C 20.925781 -18.8125 22.8125 -17.53125 24.375 -15.90625 C 25.9375 -14.289062 26.71875 -12.460938 26.71875 -10.421875 C 26.71875 -8.453125 26.363281 -6.734375 25.65625 -5.265625 C 24.957031 -3.804688 23.992188 -2.660156 22.765625 -1.828125 C 21.535156 -0.992188 20.171875 -0.378906 18.671875 0.015625 C 17.179688 0.421875 15.5625 0.625 13.8125 0.625 C 12.320312 0.625 10.859375 0.46875 9.421875 0.15625 C 7.984375 -0.144531 6.78125 -0.519531 5.8125 -0.96875 C 4.84375 -1.425781 3.96875 -1.875 3.1875 -2.3125 C 2.414062 -2.757812 1.851562 -3.132812 1.5 -3.4375 L 0.953125 -3.90625 L 4.859375 -10.453125 C 5.191406 -10.179688 5.644531 -9.828125 6.21875 -9.390625 C 6.800781 -8.960938 7.832031 -8.390625 9.3125 -7.671875 C 10.789062 -6.953125 12.097656 -6.59375 13.234375 -6.59375 C 16.523438 -6.59375 18.171875 -7.710938 18.171875 -9.953125 C 18.171875 -10.429688 18.050781 -10.867188 17.8125 -11.265625 C 17.582031 -11.671875 17.171875 -12.070312 16.578125 -12.46875 C 15.984375 -12.875 15.457031 -13.191406 15 -13.421875 C 14.539062 -13.660156 13.789062 -14.019531 12.75 -14.5 C 11.71875 -14.988281 10.953125 -15.359375 10.453125 -15.609375 C 8.378906 -16.628906 6.773438 -17.90625 5.640625 -19.4375 C 4.503906 -20.976562 3.9375 -22.632812 3.9375 -24.40625 C 3.9375 -27.476562 5.070312 -29.988281 7.34375 -31.9375 C 9.613281 -33.882812 12.203125 -34.859375 15.109375 -34.859375 Z M 15.109375 -34.859375 "/></g></g></g><g fill="#ffffff" fill-opacity="1"><g transform="translate(141.69188, 207.498428)"><g><path d="M 0.328125 -27.390625 L 0.328125 -34.234375 L 24.40625 -34.234375 L 24.40625 -27.390625 L 16.265625 -27.390625 L 16.265625 0 L 8.46875 0 L 8.46875 -27.390625 Z M 0.328125 -27.390625 "/></g></g></g><g fill="#ffffff" fill-opacity="1"><g transform="translate(169.121701, 207.498428)"><g><path d="M 2.484375 -34.234375 L 14.734375 -34.234375 C 18.023438 -34.234375 20.707031 -33.351562 22.78125 -31.59375 C 24.851562 -29.84375 25.890625 -27.332031 25.890625 -24.0625 C 25.890625 -21.550781 25.257812 -19.441406 24 -17.734375 C 22.75 -16.035156 21.039062 -14.84375 18.875 -14.15625 L 30.671875 0 L 20.75 0 L 10.296875 -13.53125 L 10.296875 0 L 2.484375 0 Z M 10.296875 -19.046875 L 11.203125 -19.046875 C 11.921875 -19.046875 12.53125 -19.054688 13.03125 -19.078125 C 13.53125 -19.109375 14.097656 -19.207031 14.734375 -19.375 C 15.367188 -19.539062 15.878906 -19.773438 16.265625 -20.078125 C 16.648438 -20.390625 16.976562 -20.832031 17.25 -21.40625 C 17.53125 -21.988281 17.671875 -22.695312 17.671875 -23.53125 C 17.671875 -24.363281 17.53125 -25.066406 17.25 -25.640625 C 16.976562 -26.222656 16.648438 -26.664062 16.265625 -26.96875 C 15.878906 -27.28125 15.367188 -27.515625 14.734375 -27.671875 C 14.097656 -27.835938 13.53125 -27.9375 13.03125 -27.96875 C 12.53125 -28 11.921875 -28.015625 11.203125 -28.015625 L 10.296875 -28.015625 Z M 10.296875 -19.046875 "/></g></g></g><g fill="#ffffff" fill-opacity="1"><g transform="translate(201.537421, 207.498428)"><g/></g></g><g fill="#ffffff" fill-opacity="1"><g transform="translate(215.563999, 207.498428)"><g/></g></g><g fill="#ffffff" fill-opacity="1"><g transform="translate(229.592107, 207.498428)"><g><path d="M 22.078125 -34.234375 L 22.078125 -27.390625 L 10.296875 -27.390625 L 10.296875 -20.578125 L 21.578125 -20.578125 L 21.578125 -13.734375 L 10.296875 -13.734375 L 10.296875 -6.84375 L 22.078125 -6.84375 L 22.078125 0 L 2.484375 0 L 2.484375 -34.234375 Z M 22.078125 -34.234375 "/></g></g></g><g fill="#ffffff" fill-opacity="1"><g transform="translate(256.357985, 207.498428)"><g><path d="M 28.796875 -34.234375 L 28.796875 -12.15625 C 28.796875 -7.945312 27.660156 -4.765625 25.390625 -2.609375 C 23.128906 -0.453125 19.8125 0.625 15.4375 0.625 C 11.0625 0.625 7.738281 -0.453125 5.46875 -2.609375 C 3.207031 -4.765625 2.078125 -7.945312 2.078125 -12.15625 L 2.078125 -34.234375 L 9.875 -34.234375 L 9.875 -14.4375 C 9.875 -11.675781 10.304688 -9.753906 11.171875 -8.671875 C 12.046875 -7.597656 13.46875 -7.0625 15.4375 -7.0625 C 17.40625 -7.0625 18.820312 -7.597656 19.6875 -8.671875 C 20.5625 -9.753906 21 -11.675781 21 -14.4375 L 21 -34.234375 Z M 28.796875 -34.234375 "/></g></g></g><g fill="#ffffff" fill-opacity="1"><g transform="translate(289.929217, 207.498428)"><g><path d="M 15.109375 -34.859375 C 16.960938 -34.859375 18.773438 -34.585938 20.546875 -34.046875 C 22.316406 -33.503906 23.628906 -32.972656 24.484375 -32.453125 L 25.734375 -31.625 L 22.578125 -25.390625 C 22.328125 -25.554688 21.976562 -25.769531 21.53125 -26.03125 C 21.09375 -26.300781 20.265625 -26.65625 19.046875 -27.09375 C 17.828125 -27.539062 16.691406 -27.765625 15.640625 -27.765625 C 14.335938 -27.765625 13.332031 -27.488281 12.625 -26.9375 C 11.925781 -26.382812 11.578125 -25.632812 11.578125 -24.6875 C 11.578125 -24.21875 11.742188 -23.78125 12.078125 -23.375 C 12.410156 -22.976562 12.976562 -22.550781 13.78125 -22.09375 C 14.582031 -21.632812 15.285156 -21.265625 15.890625 -20.984375 C 16.503906 -20.710938 17.445312 -20.300781 18.71875 -19.75 C 20.925781 -18.8125 22.8125 -17.53125 24.375 -15.90625 C 25.9375 -14.289062 26.71875 -12.460938 26.71875 -10.421875 C 26.71875 -8.453125 26.363281 -6.734375 25.65625 -5.265625 C 24.957031 -3.804688 23.992188 -2.660156 22.765625 -1.828125 C 21.535156 -0.992188 20.171875 -0.378906 18.671875 0.015625 C 17.179688 0.421875 15.5625 0.625 13.8125 0.625 C 12.320312 0.625 10.859375 0.46875 9.421875 0.15625 C 7.984375 -0.144531 6.78125 -0.519531 5.8125 -0.96875 C 4.84375 -1.425781 3.96875 -1.875 3.1875 -2.3125 C 2.414062 -2.757812 1.851562 -3.132812 1.5 -3.4375 L 0.953125 -3.90625 L 4.859375 -10.453125 C 5.191406 -10.179688 5.644531 -9.828125 6.21875 -9.390625 C 6.800781 -8.960938 7.832031 -8.390625 9.3125 -7.671875 C 10.789062 -6.953125 12.097656 -6.59375 13.234375 -6.59375 C 16.523438 -6.59375 18.171875 -7.710938 18.171875 -9.953125 C 18.171875 -10.429688 18.050781 -10.867188 17.8125 -11.265625 C 17.582031 -11.671875 17.171875 -12.070312 16.578125 -12.46875 C 15.984375 -12.875 15.457031 -13.191406 15 -13.421875 C 14.539062 -13.660156 13.789062 -14.019531 12.75 -14.5 C 11.71875 -14.988281 10.953125 -15.359375 10.453125 -15.609375 C 8.378906 -16.628906 6.773438 -17.90625 5.640625 -19.4375 C 4.503906 -20.976562 3.9375 -22.632812 3.9375 -24.40625 C 3.9375 -27.476562 5.070312 -29.988281 7.34375 -31.9375 C 9.613281 -33.882812 12.203125 -34.859375 15.109375 -34.859375 Z M 15.109375 -34.859375 "/></g></g></g><g clip-path="url(#c69ed000c1)"><path fill="#ffbd59" d="M 77.53125 167.429688 C 66.027344 169.550781 64.3125 171.265625 62.191406 182.769531 C 60.074219 171.265625 58.359375 169.550781 46.855469 167.429688 C 58.359375 165.3125 60.074219 163.597656 62.191406 152.09375 C 64.3125 163.597656 66.027344 165.3125 77.53125 167.429688 Z M 77.53125 167.429688 " fill-opacity="1" fill-rule="nonzero"/></g><g clip-path="url(#9cb18d009a)"><g clip-path="url(#8a5fd1a8fc)"><path fill="#ffffff" d="M 208.230469 195.125 L 222.53125 195.125 L 222.53125 208.578125 L 208.230469 208.578125 Z M 208.230469 195.125 " fill-opacity="1" fill-rule="nonzero"/></g></g><g clip-path="url(#a32bab1c2b)"><g clip-path="url(#741569b44c)"><path fill="#ffffff" d="M 207.664062 183.683594 L 223.078125 183.683594 L 223.078125 204.515625 L 207.664062 204.515625 Z M 207.664062 183.683594 " fill-opacity="1" fill-rule="nonzero"/></g></g><g clip-path="url(#44a3ed8b76)"><g clip-path="url(#5f3957a4c9)"><path fill="#ffffff" d="M 206.703125 171.898438 L 224.054688 171.898438 L 224.054688 183.683594 L 206.703125 183.683594 Z M 206.703125 171.898438 " fill-opacity="1" fill-rule="nonzero"/></g></g><g clip-path="url(#56d52258f7)"><path fill="#ffffff" d="M 207.664062 182.78125 L 223.089844 182.78125 L 223.089844 192.183594 L 207.664062 192.183594 Z M 207.664062 182.78125 " fill-opacity="1" fill-rule="nonzero"/></g><g clip-path="url(#7f9da6cdd5)"><g clip-path="url(#3425beca95)"><path fill="#ffffff" d="M 203.617188 191.269531 L 227.113281 191.269531 L 227.113281 204.722656 L 203.617188 204.722656 Z M 203.617188 191.269531 " fill-opacity="1" fill-rule="nonzero"/></g></g><g clip-path="url(#10572e03cf)"><path fill="#d9d9d9" d="M 207.664062 190.308594 L 223.074219 190.308594 L 223.074219 194.058594 L 207.664062 194.058594 Z M 207.664062 190.308594 " fill-opacity="1" fill-rule="nonzero"/></g></svg>